<svg id="Layer_1" data-name="Layer 1" xmlns="http://www.w3.org/2000/svg" viewBox="0 0 149.64 165"><defs><style>.cls-1{fill:#5c6164;}</style></defs><path class="cls-1" d="M555.16,206.5c3.58-.65,4-8,15.43,2.28,1.38,1.18,3.58,3.2,4.89,4.46,2.06,2,4.15,3.92,6.06,6,1.58,1.76,2.91,3.76,4.53,5.88,0-5.44.67-10.53-.12-15.37-2.4-14.68-14.2-23.15-28.79-21.39-10.6,1.28-19.71,5.92-28.06,12.41a18,18,0,0,1-2.83,1.86,41.28,41.28,0,0,1,19.24-16,39.14,39.14,0,0,1,24.84-2c-8.49-4.7-24.84-5.15-39.34,5,10.72-13.48,34.6-23,56.55-11.66-1.44-2.08-5.95-4.85-11-6.1a84.26,84.26,0,0,0-13-2.17c-4.27-.37-8.6-.08-13.08-.08,11.65-4.74,23.36-5,35.46-1.73-1.58-.84-3.13-1.76-4.74-2.52-1.77-.84-3.58-1.59-5.4-2.29s-3.55-1.25-5.33-1.84a32.22,32.22,0,0,1-5.26-2h4l-1-1.43c6.52.41,10-1.79,6.45-8.82-1.15-2.28-5.33-1.93-8.82.07-.6-3.28-2.51-5.06-5.79-5.2-3-.14-4.59,1.09-6.16,4.76-.44-1.07-.79-2-1.24-3a6.63,6.63,0,0,0-7.35-3.53c-1.28.28-2,.77-1.35,2.37a12.82,12.82,0,0,1,.34,3c-2-3.2-4.16-5-7.45-3.81-2.19.8-3.23,3.57-2.91,7.75-.74-.93-1.47-1.46-1.6-2.1-.42-2.09-1.77-2-3.27-1.7-4.35.77-6.33,3.06-6.15,7.61s1.26,8.58,4.84,11.78a9.67,9.67,0,0,0-10.67,1.54c-3.11,2.61-4.21,6.16-3.52,10.77-2.42-3.33-2.69-6.43-1.37-9.6,1.93-4.67,5.67-6.42,10.46-6.14a5.42,5.42,0,0,0-4.7-4.75c-2.52-.38-4.18,1-5.76,4.79a8.18,8.18,0,0,0-10.21,2c-3.39,3.68-2.47,8-1.05,12.51-5.88-.74-11.14.46-14.22,6s-1.92,10.64,1.9,15.74c-3.61.21-6.84,1.35-8.09,4.84a17.74,17.74,0,0,0-.93,7.71c.45,4,4.67,6.93,8.83,6.67-.67-5.26.83-9.56,5.93-12.29-2.93-1.71-3.73-4.14-2.75-7.14a5.2,5.2,0,0,1,4.64-3.76c1.79-.2,3.24.45,4.23,2.63-2.43-1.26-4.42-1.11-5.93.93a4.83,4.83,0,0,0-.79,5c.72,1.75,2.07,2.28,4.09,1.73-6.51,6.14-7.93,11.25-5.09,18.49L490.27,223c-5,4.18-5.54,11-1.12,15.19a6,6,0,0,0,8.47.07,3.2,3.2,0,0,0-.24-4.24c-2.92-2.6-3.28-4.83-1.34-8.36-3.78-5.63-1.48-10.36,3.44-10.32-4.32,4.82-4.45,6.5-.72,11a3.19,3.19,0,0,0-.76,4.78c2.24,3.05,5.34,3,8.66,2.13a6,6,0,0,1-1.41.9c-2.22.64-2.19,2.2-1.69,4a6.93,6.93,0,0,0,11.52,3.18c4.33-3.84,3.95-9.86-.88-13.86,3.1.09,4.84,2.35,6.66,8.62,3.37.42,6.54-1.83,6.83-4.84.42-4.28-2.24-6.91-7.53-7.62.65-.18,1.31-.39,2-.53,2.13-.45,3.48-3.2,2.27-5a3.2,3.2,0,0,0-2.46-1.36,4.47,4.47,0,0,0-2.48,1.73,6.94,6.94,0,0,0-.69,2.49c-1.47-1.84-2.89-3.64-5.4-3.57-1.88,7-4.5,8.49-8.92,5.33,1.23-.09,2.71.16,3.78-.4a5.17,5.17,0,0,0,2.42-3c.59-2.67-1-4.1-4.92-4.62,1.19-3.12,1.17-5.94-2.7-7.64,3.48.3,4.63,1.67,5,4.84,1.78,1.6,3.12,2.83,4.5,4a2.67,2.67,0,0,0,1.24.63,7.92,7.92,0,0,0,3.67-.13c1.62-.47,3.28-.85,4.85-1.44a5,5,0,0,0,2.38-1.58,5.28,5.28,0,0,0,.18-6c-1.51-2.44-3.74-2.75-6.4-1.84a5.15,5.15,0,0,1,8-.57c3.14,3,2.61,7.25-1.46,11a6.08,6.08,0,0,1,1.55,6.71c1.35,1.92,2.94,3.38,3.55,5.19,2,6-1.34,11.11-7.81,12a3.07,3.07,0,0,0-2.75,1.92,9,9,0,0,1-1.11,1.71c-4.67,5.35-14.09,4.14-18.23-1.33-.18-.23-.37-.44-.59-.71-5.32,2.23-10.36,2.54-14.31-2.57-3.79-4.91-3.59-9.94.49-16.4-.64-.16-1.23-.32-1.83-.45a11.93,11.93,0,0,1-9.72-10c-.94-5.6,1.24-11,5.75-13.77a2.15,2.15,0,0,0,1.14-2.79c-2.35-11.13,3.16-19.39,14.13-21.32a1.22,1.22,0,0,0,.37-.2c2.41-10.87,6.18-14,15.24-12.52,3.07-5,4-5.4,9.75-4.73a27.09,27.09,0,0,1,0-4.77,8.45,8.45,0,0,1,10-7.16,1.9,1.9,0,0,0,2.3-.91,6.58,6.58,0,0,1,8.39-2.47,2.83,2.83,0,0,0,2.09.12c4.46-2.37,7.46-1.88,10.95,2,6.14-3.77,10.83-2.23,12.33,4.23,2.44-1.69,5.1-2.68,7.9-1.58a6.92,6.92,0,0,1,3.2,2.76c2.22,3.78.85,7.35-3.81,10.72,3.45.91,7,1.55,10.35,2.77,21.64,7.92,34,24,38,46.68,3.62,20.41-.78,39.84-10.66,57.47-7.67,13.7-19.47,23.39-34.9,27.62a4.1,4.1,0,0,0-2,1.15c-5.68,6.78-13.17,9.23-21.57,9.62-5.94.27-11.88.37-17.54-1.83-1.27-.5-2.83-1.6-3.2-2.78-.62-1.94.57-3.65,2.37-4.7l-.62.91c-2.13,2.87-1.93,3.6,1.32,4.94a14,14,0,0,0,1.53.55c5.59,1.68,11.32,1.66,17,1.24,6.65-.49,12.92-2,18.13-6.78a98.64,98.64,0,0,0,19.88-25.75,13.62,13.62,0,0,0,.64-1.82H577.72c1.56,2.14,2.9,3.76,4,5.54.59,1,1.35,2.57,1,3.25-.5.88-2,1.34-3.2,1.6a20.2,20.2,0,0,1-4,.06c.6,1.61,1.1,2.73,1.43,3.91s.06,2.49-1.43,2.68c-3.35.41-6.72.74-10.09.94a10.5,10.5,0,0,1-3-.75l-.11-.72c1.19-.76,2.34-1.62,3.58-2.27,5.31-2.81,5.4-3.27,1.21-7.85a2.76,2.76,0,0,0-.61-.34c-9.89,5.49-19.64,11.2-28.68,18.1l1.24-1.8c-6.8-3.92-12.76-8.68-15.17-17.41l6.39,5.34.4-.45c-4.13-4.2-8.13-8.49-9.95-15.08,12.34,7,24.38,7.33,36.85,1.12a32.55,32.55,0,0,0-2.81-4A3.9,3.9,0,0,1,554,256a63,63,0,0,1,3.64-7.25c1.55-2.48,2.23-5.48,4.71-7.44,1.06-.84,1.52-2.54,2-3.94.14-.38-.38-1.24-.82-1.6-2.59-2.1-5.25-4.11-7.94-6.19-.5,1.59-1.29,3.63-1.76,5.74a11.78,11.78,0,0,1-3.75,6,55.46,55.46,0,0,0-5.58,6.36,3.67,3.67,0,0,0,0,4.67,12,12,0,0,1,.92,2.53c-1.36-.15-2.5,0-3.31-.43-1.82-1-3-2.73-2.27-4.84.61-1.68,2-3.05,2.92-4.62,2-3.28,3.91-6.61,5.86-9.92.18-4.76,0-19,1-20.93s1.14-1.93-.47-3.93l-1.41.81c-1.5.89-2.46.62-3.58-.94a15.74,15.74,0,0,1-2.69-10.66c.17-2.69,4.07-9.19,10.62-3.93,2,4-.15,5.54.43,8.82A2.63,2.63,0,0,0,555.16,206.5Z" transform="translate(-474.02 -140)"/><path class="cls-1" d="M560.42,151.16c.67,5.21-6.39,10.69-11.79,8.47a7.87,7.87,0,0,1-3.53-3.83c-.88-1.9-1.9-1.75-3.21-1-2.48,1.44-3.52,3.84-3.74,6.6-.2,2.47,1,4.19,3.63,5.16a4.21,4.21,0,0,1-5-1.91c-1.57-2.48-1.34-5,0-7.54,1.47-2.76,3.49-3.73,7.23-3.55,1.19-6.42,5.17-9.32,9.64-6.86-.75,0-1.38,0-2,.09a5,5,0,0,0-4.48,5.7,5.09,5.09,0,0,0,6.18,4.35C556.19,156.26,557.92,154.87,560.42,151.16Z" transform="translate(-474.02 -140)"/><path class="cls-1" d="M505.34,197.91c7,1.74,11.11-2.38,8.29-10.56a7.18,7.18,0,0,1,3.65,7.7,6.51,6.51,0,0,1-5.08,5.63A6.11,6.11,0,0,1,505.34,197.91Z" transform="translate(-474.02 -140)"/><path class="cls-1" d="M526,186.82c-4.13,3.14-8.63,2.63-10.85-1A7.34,7.34,0,0,1,518,175.4C515.48,181.5,517.05,187.13,526,186.82Z" transform="translate(-474.02 -140)"/><path class="cls-1" d="M509.55,186.53c-2.83,3-7.12,3.4-9.59,1-2.31-2.27-2.36-6.79-.11-9.26s5.65-2.55,8.36-.1c-2.91-.79-5.4-.68-6.89,2a4.74,4.74,0,0,0,.3,5.6C503.83,188.29,506.66,187.55,509.55,186.53Z" transform="translate(-474.02 -140)"/><path class="cls-1" d="M530.4,169.88a6,6,0,0,1,6.33,3.71,6.73,6.73,0,0,1-.8,7.63c-1.55,1.92-3.58,2.59-6.43,1.69,3.48-.72,5.34-2.63,5.5-5.84S533.67,171.61,530.4,169.88Z" transform="translate(-474.02 -140)"/></svg>